Coordinates
version=1
nRows=14
nColumns=46
inDegrees=yes

Units are S.I. units (second, meters, Newtons, ...)
Angles are in degrees.

endheader
time	pelvis_tilt	pelvis_list	pelvis_rotation	pelvis_tx	pelvis_ty	pelvis_tz	bb_angle	bb_tx	bb_ty	bb_tz	hip_flexion_r	hip_adduction_r	hip_rotation_r	knee_angle_r	knee_angle_r_beta	ankle_angle_r	subtalar_angle_r	mtp_angle_r	crank_angle_r	hip_flexion_l	hip_adduction_l	hip_rotation_l	knee_angle_l	knee_angle_l_beta	ankle_angle_l	subtalar_angle_l	mtp_angle_l	crank_angle_l	lumbar_extension	lumbar_bending	lumbar_rotation	arm_flex_r	arm_add_r	arm_rot_r	elbow_flex_r	pro_sup_r	wrist_flex_r	wrist_dev_r	arm_flex_l	arm_add_l	arm_rot_l	elbow_flex_l	pro_sup_l	wrist_flex_l	wrist_dev_l
      2.50000000	    -18.28888430	      2.82833743	      1.45905382	      0.08919838	      1.10993176	     -0.25828331	      0.00000000	      0.50000000	      0.00000000	      0.25000000	     76.85197333	     -2.56276421	      8.28421940	    109.88283532	      1.91781727	     -1.69300458	    -11.13087540	      0.00000000	      0.00000000	     51.27555088	     -4.16912224	     -7.81416172	     36.29420418	      0.63345336	     -9.97927717	     -2.16728918	      0.00000000	      0.00000000	    -55.67113969	     -4.63556511	      2.20471870	     87.98931295	    -23.17190994	     34.61333477	     46.54591301	     43.34077354	      0.00000000	      0.00000000	     86.53408970	     -8.06066089	     27.85302260	     48.40460232	     41.25435594	      0.00000000	      0.00000000
      2.50500000	    -18.17783389	      2.72707311	      1.14909041	      0.08891466	      1.11041432	     -0.25871583	      0.00000000	      0.50000000	      0.00000000	      0.25000000	     77.43675400	     -2.20324548	      8.42378333	    110.50789267	      1.92872658	     -1.08190659	    -10.70346155	      0.00000000	      0.00000000	     50.38598687	     -4.44976035	     -8.30251648	     35.31270034	      0.61632289	    -10.79209736	     -1.72217545	      0.00000000	      0.00000000	    -55.87261489	     -4.76112260	      2.50132271	     88.05591545	    -23.45700901	     34.62576312	     46.93098224	     43.37774871	      0.00000000	      0.00000000	     86.60490248	     -7.95863908	     27.83039598	     48.57489820	     41.32751431	      0.00000000	      0.00000000
      2.51000000	    -18.17420104	      2.38653626	      0.96809152	      0.08847475	      1.11065252	     -0.25933766	      0.00000000	      0.50000000	      0.00000000	      0.25000000	     78.12460597	     -1.87357631	      8.27061783	    111.07992243	      1.93871038	     -0.60998947	    -10.76111543	      0.00000000	      0.00000000	     49.74259051	     -4.80808326	     -8.48062304	     34.48346172	      0.60184994	    -11.61062437	     -1.30771514	      0.00000000	      0.00000000	    -55.90286309	     -4.56639657	      2.85426988	     88.15792031	    -23.47158133	     34.65389687	     47.11272491	     43.39254194	      0.00000000	      0.00000000	     86.66544886	     -7.99012473	     27.80480073	     48.57165273	     41.34588446	      0.00000000	      0.00000000
      2.51500000	    -18.20416909	      2.03947486	      0.77072510	      0.08806837	      1.11091472	     -0.25990281	      0.00000000	      0.50000000	      0.00000000	      0.25000000	     78.85628551	     -1.52472273	      8.07460970	    111.58727724	      1.94756539	     -0.36666049	    -10.65304706	      0.00000000	      0.00000000	     49.12563749	     -5.16905722	     -8.60343023	     33.66624765	      0.58758687	    -12.31186817	     -0.91401566	      0.00000000	      0.00000000	    -55.91422998	     -4.39852203	      3.16909403	     88.27572975	    -23.42932801	     34.66072205	     47.21798440	     43.39921134	      0.00000000	      0.00000000	     86.74933969	     -8.05172875	     27.78132765	     48.56543572	     41.35170183	      0.00000000	      0.00000000
      2.52000000	    -18.17482313	      1.72502455	      0.57407575	      0.08766275	      1.11125875	     -0.26045941	      0.00000000	      0.50000000	      0.00000000	      0.25000000	     79.52700542	     -1.20945557	      7.90754186	    112.06140365	      1.95584046	     -0.06936682	    -10.55079264	      0.00000000	      0.00000000	     48.46616495	     -5.51249822	     -8.79730343	     32.90315584	      0.57426840	    -13.04240991	     -0.54828603	      0.00000000	      0.00000000	    -55.96946713	     -4.23262410	      3.50854321	     88.38820723	    -23.37939665	     34.66454417	     47.30877101	     43.40273429	      0.00000000	      0.00000000	     86.86606588	     -8.15004769	     27.78562792	     48.55221488	     41.35718855	      0.00000000	      0.00000000
      2.52500000	    -18.09273085	      1.43896341	      0.34045621	      0.08725824	      1.11164052	     -0.26096979	      0.00000000	      0.50000000	      0.00000000	      0.25000000	     80.15221284	     -0.87551502	      7.77831110	    112.50747629	      1.96362589	      0.42833376	    -10.57984074	      0.00000000	      0.00000000	     47.76216452	     -5.85456656	     -9.01895472	     32.18897292	      0.56180356	    -13.76570157	     -0.26670122	      0.00000000	      0.00000000	    -56.07107408	     -4.13186677	      3.80367312	     88.48423388	    -23.32034226	     34.66417772	     47.40258602	     43.40453424	      0.00000000	      0.00000000	     86.96793998	     -8.22953448	     27.80987571	     48.52492106	     41.36155572	      0.00000000	      0.00000000
      2.53000000	    -17.96626019	      1.16916831	      0.04069759	      0.08694386	      1.11227254	     -0.26148631	      0.00000000	      0.50000000	      0.00000000	      0.25000000	     80.72337201	     -0.51456752	      7.64611373	    112.85950542	      1.96976996	      0.68379538	    -10.34339064	      0.00000000	      0.00000000	     46.98684469	     -6.22399552	     -9.31589935	     31.46768734	      0.54921475	    -14.60192246	      0.00164871	      0.00000000	      0.00000000	    -56.25318439	     -4.11068591	      4.10228895	     88.57254790	    -23.25579133	     34.64469086	     47.51381802	     43.39992121	      0.00000000	      0.00000000	     87.06731060	     -8.30700706	     27.87696043	     48.46270363	     41.36612527	      0.00000000	      0.00000000
      2.53500000	    -17.86210946	      0.92125720	     -0.24399760	      0.08661677	      1.11280255	     -0.26210554	      0.00000000	      0.50000000	      0.00000000	      0.25000000	     81.32192402	     -0.18830601	      7.54561983	    113.19948406	      1.97570371	      0.92046769	    -10.19280571	      0.00000000	      0.00000000	     46.26631842	     -6.55282332	     -9.59139958	     30.83440500	      0.53816189	    -15.27375987	      0.16955141	      0.00000000	      0.00000000	    -56.38589336	     -4.07494535	      4.37273742	     88.65348158	    -23.18615083	     34.60272568	     47.61876866	     43.38945249	      0.00000000	      0.00000000	     87.18855726	     -8.37877274	     27.95306100	     48.39968635	     41.37001655	      0.00000000	      0.00000000
      2.54000000	    -17.74739918	      0.68661537	     -0.35883966	      0.08612291	      1.11287181	     -0.26300862	      0.00000000	      0.50000000	      0.00000000	      0.25000000	     81.99537592	     -0.10073010	      7.38209816	    113.61003402	      1.98286916	      0.93882635	    -10.14692538	      0.00000000	      0.00000000	     45.74121227	     -6.74216776	     -9.67148051	     30.63015631	      0.53459708	    -15.44824550	      0.19107873	      0.00000000	      0.00000000	    -56.48697094	     -3.96083279	      4.48269719	     88.67373689	    -23.15601656	     34.59788938	     47.63361533	     43.38708931	      0.00000000	      0.00000000	     87.26792083	     -8.40895531	     27.95223195	     48.39374122	     41.36934411	      0.00000000	      0.00000000
      2.54500000	    -17.47120061	      0.54903394	     -0.87319978	      0.08593367	      1.11423037	     -0.26320289	      0.00000000	      0.50000000	      0.00000000	      0.25000000	     82.30448276	      0.44602743	      7.42556207	    113.71043800	      1.98462154	      1.24955495	     -9.88116940	      0.00000000	      0.00000000	     44.63587250	     -7.11147629	    -10.20809044	     29.66068035	      0.51767653	    -16.64264050	      0.23608624	      0.00000000	      0.00000000	    -56.87962966	     -4.18092880	      4.89454487	     88.77213415	    -23.05850642	     34.18536292	     47.89999418	     43.28119860	      0.00000000	      0.00000000	     87.59358204	     -8.50161797	     28.30686338	     48.13459590	     41.37640213	      0.00000000	      0.00000000
      2.55000000	    -17.37435091	      0.31859133	     -0.99380999	      0.08542710	      1.11441500	     -0.26400866	      0.00000000	      0.50000000	      0.00000000	      0.25000000	     82.97833651	      0.49687319	      7.22253092	    114.00153629	      1.98970216	      1.27079759	     -9.84042214	      0.00000000	      0.00000000	     44.15388152	     -7.29783074	    -10.23914190	     29.51556111	      0.51514372	    -16.82001672	      0.25457052	      0.00000000	      0.00000000	    -56.98294480	     -4.08193707	      5.00238434	     88.79418029	    -23.01007295	     34.18206245	     47.91674433	     43.27846298	      0.00000000	      0.00000000	     87.64981269	     -8.52605295	     28.30874619	     48.11994748	     41.37412213	      0.00000000	      0.00000000
      2.55500000	    -17.29755276	     -0.09531268	     -1.39533462	      0.08497813	      1.11539848	     -0.26432603	      0.00000000	      0.50000000	      0.00000000	      0.25000000	     83.47386646	      0.97532418	      6.91384039	    113.95113016	      1.98882241	      1.32541522	     -9.69694625	      0.00000000	      0.00000000	     43.47625882	     -7.81399521	    -10.37548361	     28.87785467	      0.50401364	    -17.80364680	      0.26750211	      0.00000000	      0.00000000	    -57.11603332	     -3.99164826	      5.47870441	     88.90188689	    -22.78488468	     34.08033681	     48.04969676	     43.25139172	      0.00000000	      0.00000000	     87.80616879	     -8.66575042	     28.36588270	     47.97833926	     41.35619825	      0.00000000	      0.00000000
      2.56000000	    -17.07855320	     -0.27546768	     -1.73106096	      0.08449741	      1.11626285	     -0.26476623	      0.00000000	      0.50000000	      0.00000000	      0.25000000	     83.88969404	      1.29014198	      6.85746726	    113.99639161	      1.98961237	      1.35855153	     -9.58397801	      0.00000000	      0.00000000	     42.74238495	     -8.08844723	    -10.63716465	     28.52765122	      0.49790144	    -18.48033152	      0.00347540	      0.00000000	      0.00000000	    -57.41285752	     -4.07429703	      5.75710784	     88.93460462	    -22.60044043	     33.58728093	     48.23759192	     43.08320276	      0.00000000	      0.00000000	     88.06248665	     -8.75942177	     28.79152191	     47.68105096	     41.34079730	      0.00000000	      0.00000000
      2.56500000	    -17.00817099	     -0.47924378	     -1.88564470	      0.08381260	      1.11666408	     -0.26550569	      0.00000000	      0.50000000	      0.00000000	      0.25000000	     84.47487999	      1.37645693	      6.68071540	    114.03882466	      1.99035297	      1.40562401	     -9.53750762	      0.00000000	      0.00000000	     42.31756634	     -8.26752095	    -10.65581176	     28.43748145	      0.49632768	    -18.68537081	     -0.03663108	      0.00000000	      0.00000000	    -57.49846050	     -4.01730096	      5.86554531	     88.98573395	    -22.52838322	     33.56687462	     48.27084812	     43.07503141	      0.00000000	      0.00000000	     88.13573840	     -8.79002397	     28.80612547	     47.65706954	     41.33647805	      0.00000000	      0.00000000
